<svg xmlns="http://www.w3.org/2000/svg" version="1.1" xmlns:xlink="http://www.w3.org/1999/xlink" xmlns:svgjs="http://svgjs.dev/svgjs" width="1500" height="1500" viewBox="0 0 1500 1500"><rect width="1500" height="1500" fill="#000000"></rect><g transform="matrix(0.6666666666666666,0,0,0.6666666666666666,249.78425655976667,249.78425655976673)"><svg viewBox="0 0 343 343" data-background-color="#ffffff" preserveAspectRatio="xMidYMid meet" height="1500" width="1500" xmlns="http://www.w3.org/2000/svg" xmlns:xlink="http://www.w3.org/1999/xlink"><g id="tight-bounds" transform="matrix(1,0,0,1,0.0740000000000407,0.07400000000001228)"><svg viewBox="0 0 342.85155851775386 342.85155851775386" height="342.85155851775386" width="342.85155851775386"><g><svg></svg></g><g><svg viewBox="0 0 342.85155851775386 342.85155851775386" height="342.85155851775386" width="342.85155851775386"><g><path d="M0 171.426c0-94.676 76.75-171.426 171.426-171.426 94.676 0 171.426 76.75 171.426 171.426 0 94.676-76.75 171.426-171.426 171.426-94.676 0-171.426-76.75-171.426-171.426zM171.426 336.891c91.384 0 165.465-74.081 165.465-165.465 0-91.384-74.081-165.465-165.465-165.465-91.384 0-165.465 74.081-165.465 165.465 0 91.384 74.081 165.465 165.465 165.465z" data-fill-palette-color="tertiary" fill="#ffffff" stroke="transparent"></path><ellipse rx="164.56874808852186" ry="164.56874808852186" cx="171.42577925887693" cy="171.42577925887693" fill="#ffffff" stroke="transparent" stroke-width="0" fill-opacity="1" data-fill-palette-color="tertiary"></ellipse></g><g transform="matrix(1,0,0,1,64.84655864529837,84.89729857250444)"><svg viewBox="0 0 213.1584412271571 173.05696137274498" height="173.05696137274498" width="213.1584412271571"><g><svg viewBox="0 0 213.1584412271571 173.05696137274498" height="173.05696137274498" width="213.1584412271571"><g><svg viewBox="0 0 213.1584412271571 173.05696137274498" height="173.05696137274498" width="213.1584412271571"><g transform="matrix(1,0,0,1,0,106.9561448293196)"><svg viewBox="0 0 213.1584412271571 66.1008165434254" height="66.1008165434254" width="213.1584412271571"><g id="textblocktransform"><svg viewBox="0 0 213.1584412271571 66.1008165434254" height="66.1008165434254" width="213.1584412271571" id="textblock"><g><svg viewBox="0 0 213.1584412271571 66.1008165434254" height="66.1008165434254" width="213.1584412271571"><g transform="matrix(1,0,0,1,0,0)"><svg width="213.1584412271571" viewBox="0.6 -38.9 127.69 39.6" height="66.1008165434254" data-palette-color="#ffffff"><path d="M29.25-38.9L37.7-8.2 39.7-8.2 39.7 0 20.1 0 20.1-8.2 23.1-8.2 22.3-12.2 15.5-12.2 14.7-8.2 17.7-8.2 17.7 0 0.6 0 0.6-8.2 2.6-8.2 11.05-38.9 29.25-38.9ZM18.65-27.45L16.6-17.5 21.2-17.5 19.15-27.45 18.65-27.45ZM56.1 0.7Q49 0.7 45-3.03 41-6.75 41-13.9L41-13.9Q41-21.05 45-24.78 49-28.5 56.1-28.5L56.1-28.5Q63.3-28.5 67.25-24.73 71.2-20.95 71.2-13.9L71.2-13.9Q71.2-6.75 67.2-3.03 63.2 0.7 56.1 0.7L56.1 0.7ZM56.1-8.2Q57.55-8.2 58.27-8.97 59-9.75 59-11.4L59-11.4 59-16.4Q59-18.05 58.27-18.82 57.55-19.6 56.1-19.6L56.1-19.6Q54.65-19.6 53.92-18.82 53.2-18.05 53.2-16.4L53.2-16.4 53.2-11.4Q53.2-9.75 53.92-8.97 54.65-8.2 56.1-8.2L56.1-8.2ZM94.15-28.5Q95.15-28.5 96.05-28.3 96.95-28.1 97.55-27.8L97.55-27.8 97.55-18.25Q95.5-19.1 93.15-19.1L93.15-19.1Q90-19.1 88.3-17.45 86.6-15.8 86.6-12.55L86.6-12.55 86.6-8.2 91.1-8.2 91.1 0 72.9 0 72.9-8.2 75.1-8.2 75.1-19.6 72.9-19.6 72.9-27.8 86.6-27.8 86.6-24.15Q88-26.25 89.8-27.38 91.6-28.5 94.15-28.5L94.15-28.5ZM126.09-8.2L128.29-8.2 128.29 0 115.09 0 115.09-3.4Q113.99-1.8 112.02-0.55 110.04 0.7 107.19 0.7L107.19 0.7Q103.44 0.7 101.29-1.3 99.14-3.3 99.14-6.95L99.14-6.95Q99.14-16.4 115.19-16.65L115.19-16.65Q115.04-18.35 113.89-18.98 112.74-19.6 109.99-19.6L109.99-19.6Q107.74-19.6 105.17-19.13 102.59-18.65 100.44-17.85L100.44-17.85 100.44-27.05Q103.09-27.7 106.19-28.1 109.29-28.5 112.24-28.5L112.24-28.5Q119.69-28.5 122.89-25.8 126.09-23.1 126.09-17.45L126.09-17.45 126.09-8.2ZM115.09-11.4L115.09-11.7Q112.84-11.7 111.62-11.1 110.39-10.5 110.39-9.1L110.39-9.1Q110.39-8.25 110.92-7.73 111.44-7.2 112.39-7.2L112.39-7.2Q113.69-7.2 114.39-8.3 115.09-9.4 115.09-11.4L115.09-11.4Z" opacity="1" transform="matrix(1,0,0,1,0,0)" fill="#000000" class="wordmark-text-0" data-fill-palette-color="quaternary" id="text-0"></path></svg></g></svg></g></svg></g></svg></g><g transform="matrix(1,0,0,1,67.06614600060826,0)"><svg viewBox="0 0 79.02614922594061 91.3513284630139" height="91.3513284630139" width="79.02614922594061"><g><svg xmlns="http://www.w3.org/2000/svg" xmlns:xlink="http://www.w3.org/1999/xlink" version="1.1" x="0" y="0" viewBox="17.3 12.2 65.4 75.6" style="enable-background:new 0 0 100 100;" xml:space="preserve" height="91.3513284630139" width="79.02614922594061" class="icon-icon-0" data-fill-palette-color="quaternary" id="icon-0"><path d="M50 12.2L17.3 31.1V68.9L50 87.8 82.7 68.9V31.1zM32.1 37.4L50 16 67 37.4zM67.3 39.4L50 70.4 31.8 39.4zM48.1 71L20.4 66.5 30.2 40.6zM68.9 40.7L79.6 66.6 51.9 71.1zM69.2 37.1L52.6 16 79.6 31.6zM29.8 37.1L20.4 31.6 47.2 16.1zM28.8 38.8L19.3 63.8V33.3zM49 73.2V84.9L20.9 68.7zM51 73.2L79.1 68.7 51 84.9zM70.3 38.8L80.8 33.2V64.1z" fill="#000000" data-fill-palette-color="quaternary"></path></svg></g></svg></g><g></g></svg></g></svg></g></svg></g></svg></g><defs></defs></svg><rect width="342.85155851775386" height="342.85155851775386" fill="none" stroke="none" visibility="hidden"></rect></g></svg></g></svg>